<svg xmlns="http://www.w3.org/2000/svg" width="2920" height="1200" viewBox="0 0 2920 1200" version="1.1">
    <path d="M 1463.684 78.041 C 1424.330 85.263, 1395.696 106.384, 1373.058 144.886 C 1369.516 150.911, 1361.949 168.208, 1359.077 176.844 C 1347.937 210.349, 1343.330 253.525, 1345.760 301.662 C 1347.011 326.447, 1348.470 337.488, 1353.140 357.500 C 1365.358 409.862, 1390.714 446.961, 1427.182 465.832 C 1450.829 478.069, 1480.154 482.668, 1511 478.979 C 1592.001 469.291, 1637.948 393.359, 1635.705 272.895 C 1635.093 240.013, 1633.419 223.646, 1628.301 200.500 C 1618.386 155.659, 1598.742 122.145, 1569.136 99.562 C 1555.681 89.299, 1536.434 81.387, 1516.500 77.924 C 1502.056 75.415, 1477.698 75.469, 1463.684 78.041 M 1667 277.500 L 1667 471 1761 471 L 1855 471 1855 423.500 L 1855 376 1815 376 L 1775 376 1775 230 L 1775 84 1721 84 L 1667 84 1667 277.500 M 1877 132.500 L 1877 181 1926.107 181 C 1965.001 181, 1975.107 181.260, 1974.698 182.250 C 1974.414 182.938, 1953.047 235.475, 1927.214 299 C 1901.382 362.525, 1875.241 426.764, 1869.123 441.753 C 1863.005 456.742, 1858 469.454, 1858 470.003 C 1858 470.661, 1901.055 471, 1984.500 471 L 2111 471 2111 421.500 L 2111 372 2061 372 C 2033.500 372, 2011 371.713, 2011 371.362 C 2011 371.012, 2037.550 306.918, 2070 228.932 C 2102.450 150.947, 2129 86.434, 2129 85.570 C 2129 84.152, 2116.836 84, 2003 84 L 1877 84 1877 132.500 M 827.250 88.097 C 826.013 88.558, 825 89.241, 825 89.614 C 825 89.988, 826.330 94.444, 827.955 99.517 C 833.126 115.660, 835.251 128.214, 834.723 139.500 C 834.161 151.526, 832.154 156.783, 825.349 164.058 C 819.846 169.941, 820.897 170.886, 813.855 153.722 C 803.950 129.580, 793.239 116.665, 770.647 101.626 C 760.156 94.642, 758.650 93.921, 757.326 95.246 C 756.001 96.570, 756.161 97.121, 758.742 100.120 C 765.591 108.076, 777.735 125.039, 783.975 135.363 C 795.971 155.211, 800.470 170.549, 800.442 191.500 C 800.407 218.346, 791.710 247.270, 778.442 264.665 C 774.847 269.379, 764.399 277.852, 756.016 282.852 C 747.985 287.642, 745.501 288.125, 746.353 284.731 C 750.645 267.628, 750.877 245.967, 746.932 230.500 C 744.484 220.899, 735.471 202.039, 727.673 190.196 C 725.247 186.513, 722.738 182.488, 722.096 181.250 C 720.866 178.878, 716.992 178.116, 717.011 180.250 C 717.018 180.938, 718.322 185.808, 719.909 191.073 C 725.418 209.341, 726.481 218.090, 726.464 245 C 726.452 263.227, 725.981 272.829, 724.624 282.500 C 722.675 296.387, 718.401 311.516, 714.247 319.235 L 711.698 323.971 706.599 320.271 C 703.795 318.236, 693.850 311.432, 684.500 305.151 C 645.202 278.749, 640.945 272.462, 631.634 227.076 C 629.669 217.494, 628.947 215.525, 627.160 214.864 C 624.300 213.805, 623.444 215.583, 620.444 228.806 C 616.902 244.419, 617.163 252.246, 621.863 271.321 C 623.987 279.945, 625.617 287, 625.486 287 C 623.028 287, 595.523 276.340, 585.698 271.579 C 557.666 257.997, 550.210 247.150, 548.056 216.820 L 547.050 202.649 551.275 199.092 C 564.120 188.276, 574.227 176.947, 586.147 160 C 588.661 156.425, 594.126 148.705, 598.291 142.844 C 605.612 132.542, 605.802 132.131, 603.990 130.491 C 602.194 128.865, 601.366 129.551, 584.188 146.893 C 565.705 165.552, 560.721 169.197, 551.682 170.664 C 548.505 171.180, 548.252 171.012, 547.646 167.982 C 546.516 162.332, 546.947 152.131, 548.628 144.697 C 550.515 136.355, 557.129 120.735, 563.528 109.506 C 566.943 103.514, 567.724 101.372, 566.870 100.343 C 566.257 99.604, 565.452 99, 565.081 99 C 563.402 99, 540.913 125.943, 535.789 134.093 C 524.942 151.345, 522.693 160.968, 522.789 189.709 L 522.857 209.918 516.695 206.209 C 513.305 204.169, 507.352 199.350, 503.465 195.500 C 492.731 184.869, 492.858 185.558, 490.082 122.500 C 489.574 110.950, 488.866 100.757, 488.510 99.849 C 488.153 98.940, 487.002 97.972, 485.951 97.698 C 484.290 97.263, 483.526 98.781, 480.089 109.349 C 473.338 130.106, 471.619 140.148, 471.585 159 C 471.549 179.615, 473.316 187.253, 482.944 208.095 C 492.589 228.973, 507.009 249.205, 523.223 264.607 C 542.838 283.240, 579.437 303.332, 614.385 314.654 C 629.216 319.459, 647.932 327.243, 655.777 331.869 C 664.771 337.172, 687 351.113, 687 351.451 C 687 351.636, 685.313 351.380, 683.250 350.882 C 681.188 350.384, 674.100 348.676, 667.500 347.086 C 644.206 341.475, 616.595 333.902, 610.087 331.339 C 601.043 327.778, 586.831 320.422, 584.128 317.904 C 581.934 315.860, 579 315.915, 579 318 C 579 321.062, 583.834 332.793, 589.158 342.653 C 600.266 363.225, 611.962 376.229, 621.818 378.966 C 623.843 379.529, 632.969 379.991, 642.098 379.994 L 658.696 380 660.290 383.750 C 663.301 390.834, 663.253 391.510, 659.123 400.177 C 651.702 415.751, 650.235 424.758, 649.379 460 C 648.555 493.884, 645.522 506.569, 635.086 519.772 C 629.035 527.427, 621.748 532.389, 608.434 537.920 C 596.144 543.026, 580.659 551.002, 571 557.201 C 561.761 563.131, 537.965 574.651, 529.500 577.292 C 508.224 583.929, 493.261 585.286, 457 583.869 C 433.405 582.946, 423.854 583.018, 401.500 584.287 C 372.969 585.906, 369.224 586.604, 350 593.889 C 328.876 601.894, 300.145 624.374, 288.577 641.949 C 280.304 654.519, 273.160 674.282, 271.363 689.568 C 270.798 694.378, 270.928 694.842, 273.026 695.508 C 274.278 695.906, 277.518 696.231, 280.226 696.231 C 287.161 696.231, 290.394 693.014, 291.997 684.518 C 293.912 674.367, 297.792 669.635, 301.016 673.519 C 302.044 674.758, 301.970 675.376, 300.616 676.872 C 296.906 680.971, 296.480 688.382, 298.324 716.753 C 300.419 748.995, 300.459 759.110, 298.535 770.119 C 296.828 779.888, 294.448 787.181, 289.866 796.677 C 284.719 807.343, 266.712 824.700, 250.750 834.379 C 248.053 836.014, 248 836.233, 248 845.773 C 248 857.105, 245.624 889.185, 243.495 906.600 C 241.198 925.388, 229.844 983.019, 226.929 990.687 C 224.925 995.957, 218.914 1021.397, 219.200 1023.398 C 219.447 1025.132, 220.376 1025.588, 224.500 1026 L 229.499 1026.500 232.149 1041.736 C 233.671 1050.485, 235.607 1058.362, 236.696 1060.236 C 238.709 1063.702, 247.145 1069.330, 252.986 1071.103 C 254.919 1071.690, 261.118 1072.416, 266.761 1072.717 C 277.264 1073.276, 282.522 1072.209, 287.348 1068.541 C 289.098 1067.211, 288.888 1066.645, 283.348 1057.794 C 274.430 1043.547, 265.170 1024.415, 262.877 1015.500 C 258.415 998.149, 259.303 980.675, 266.126 951.581 C 275.293 912.488, 280.338 897.338, 288.196 885.291 C 295.721 873.756, 302.627 866.362, 321.500 849.634 C 330.850 841.346, 343 830.477, 348.500 825.479 C 354 820.482, 361.993 814.037, 366.262 811.158 C 392.503 793.460, 416.814 766.048, 424.933 745 C 429.460 733.266, 433.721 715.301, 435.605 700.005 C 437.068 688.121, 437.589 686, 439.042 686 C 442.779 686, 444.301 691.714, 444.066 704.859 C 443.474 737.934, 428.646 766.171, 394.343 799.546 L 382.989 810.592 386.117 814.845 C 390.901 821.349, 390.102 825.270, 380.478 842.500 C 369.852 861.526, 365.035 872.497, 365.015 877.712 C 364.986 885.791, 370.355 896.121, 392.972 931.500 C 412.022 961.298, 423.154 982.058, 429.051 998.781 C 430.764 1003.638, 434.958 1021.460, 436.434 1030.153 C 437.289 1035.187, 439.400 1035.643, 444.211 1031.833 C 450.187 1027.100, 450.531 1027.472, 460.542 1049.500 C 468.986 1068.080, 471.567 1070.108, 483.566 1067.593 C 489.155 1066.421, 491.958 1066.361, 498.231 1067.275 C 505.462 1068.329, 506.293 1068.256, 510.526 1066.200 C 515.483 1063.791, 517.119 1061.332, 514.912 1059.605 C 512.127 1057.425, 496.143 1039.283, 487.067 1028 C 462.894 997.946, 434.802 948.638, 425.551 920.022 C 421.106 906.272, 419.283 892.906, 420.950 886.282 C 424.896 870.597, 432.846 858.858, 459 830.098 C 477.301 809.973, 480.979 804.658, 480.992 798.318 C 480.999 794.872, 480.506 793.785, 478.193 792.137 C 474.302 789.367, 462.576 783.562, 455.594 780.949 C 450.120 778.901, 442 772.361, 442 770 C 442 768.215, 445.775 768.942, 448.673 771.284 C 461.635 781.759, 517.258 791.862, 556.394 790.850 C 569.958 790.499, 570.953 790.329, 578.878 786.992 L 587.170 783.500 586.623 778.500 C 583.921 753.781, 585.036 738.479, 590.257 728.646 C 592.939 723.596, 593.536 722.968, 593.708 725.019 C 593.823 726.384, 594.403 737.400, 594.998 749.500 C 596.115 772.229, 598.261 795.888, 600.048 805.177 C 600.611 808.105, 602.410 818.998, 604.046 829.384 C 611.689 877.910, 612.850 898.252, 611.104 953 C 609.945 989.356, 608.640 1003.471, 604.926 1019.805 C 602.623 1029.937, 602.923 1034.671, 605.792 1033.462 C 613.053 1030.404, 614.627 1032.108, 615.974 1044.487 C 617.415 1057.716, 618.739 1061.739, 623.083 1066.083 C 628.033 1071.033, 634.413 1073.054, 647.203 1073.721 C 656.858 1074.224, 660.391 1073.909, 673.166 1071.401 C 678.003 1070.452, 677.338 1068.301, 669.237 1058.690 C 654.257 1040.917, 649.744 1033.139, 646.068 1018.767 C 644.230 1011.579, 644.073 1007.070, 643.841 954.767 C 643.561 891.577, 642.577 904.205, 652.587 842.500 C 662.779 779.670, 662.818 779.539, 674.977 765.500 C 682.222 757.136, 686.610 748.750, 688.191 740.250 C 689.283 734.379, 690.905 732.419, 692.516 735.025 C 693.477 736.580, 683.281 766.465, 678.847 775.089 C 676.701 779.263, 672.497 785.646, 669.505 789.273 C 663.140 796.990, 662.373 800.071, 661.363 822 C 660.627 837.972, 661.894 851.521, 666.083 872.454 C 670.916 896.602, 672.815 911.114, 676.494 952 C 677.310 961.075, 678.708 975.250, 679.599 983.500 C 680.707 993.759, 681.044 1002.846, 680.665 1012.250 L 680.110 1026 684.900 1026 C 688.229 1026, 690.144 1026.534, 691.177 1027.750 C 692.874 1029.747, 695.939 1036.952, 698.514 1045 C 700.864 1052.342, 703.306 1057.034, 706.166 1059.702 C 711.935 1065.083, 721.537 1066.332, 735.137 1063.471 C 739.134 1062.630, 744.390 1062.068, 746.816 1062.221 C 750.055 1062.426, 751.515 1062.057, 752.306 1060.834 C 753.192 1059.464, 751.689 1057.064, 743.849 1047.334 C 723.758 1022.400, 719.734 1016.059, 714.625 1001.287 C 710.642 989.769, 708.584 977.383, 707.019 955.500 C 706.428 947.250, 705.182 935.100, 704.249 928.500 C 702.203 914.027, 702.108 897.390, 703.754 840.947 C 705.315 787.383, 706.379 779.426, 713.589 767.392 C 717.938 760.134, 724.114 753.680, 734.301 745.746 C 743.059 738.926, 752.633 727.650, 756.983 719.035 C 760.776 711.520, 766.958 691.149, 770.952 673 C 774.094 658.721, 777.327 648.366, 782.367 636.438 C 786.692 626.199, 792.720 576.089, 791.682 559 C 790.970 547.291, 786.732 530.481, 780.455 514.474 C 777.873 507.888, 774.275 498.450, 772.459 493.500 C 770.644 488.550, 766.648 478.276, 763.580 470.669 C 760.511 463.062, 758 456.289, 758 455.618 C 758 453.623, 773.224 445.027, 782.180 441.966 C 792.892 438.305, 807.138 436.753, 823 437.520 C 837.518 438.221, 835.125 439.787, 844.580 423.398 C 847.720 417.954, 851.350 412.108, 852.645 410.406 C 853.940 408.704, 855 406.613, 855 405.759 C 855 402.357, 835.798 387.286, 812 372.011 C 787.295 356.152, 783.872 353.798, 779.622 349.741 L 775.500 345.807 784.232 341.448 C 794.454 336.346, 801.865 331.068, 807.665 324.759 C 812.535 319.463, 814.097 316.642, 817.628 306.777 C 819.060 302.775, 820.604 299.035, 821.059 298.466 C 821.514 297.898, 821.574 296.953, 821.193 296.366 C 819.830 294.269, 817.491 294.378, 815.727 296.620 C 808.447 305.875, 762.304 328.249, 755.713 325.720 C 754.360 325.201, 755.043 324.148, 759.269 320.241 C 775.591 305.151, 789.960 294.916, 816.500 279.477 C 838.362 266.758, 863.294 249.542, 871.494 241.500 C 883.338 229.886, 896.026 205.761, 900.665 186.038 C 902.856 176.723, 902.033 162.725, 898.723 153 C 892.872 135.808, 892.001 134, 889.573 134 C 887.306 134, 887.286 134.119, 886.722 151.250 C 886.307 163.825, 885.609 170.572, 884.145 176.144 C 877.815 200.233, 858.115 222.969, 829.704 238.977 C 826.517 240.773, 823.782 242.075, 823.628 241.871 C 822.964 240.994, 825.238 222.052, 826.570 217.365 C 827.373 214.540, 830.882 208.015, 834.369 202.865 C 841.674 192.072, 847.108 181.907, 849.881 173.844 C 854.975 159.040, 855.278 138.586, 850.609 124.710 C 847.918 116.714, 839.695 101.464, 833.175 92.379 C 829.987 87.938, 829.202 87.370, 827.250 88.097 M 1480.288 173.823 C 1463.385 180.690, 1457.451 203.450, 1456.291 265.857 C 1455.384 314.634, 1458.864 347.983, 1466.486 363.561 C 1469.556 369.836, 1476.722 376.551, 1481.877 377.983 C 1483.870 378.536, 1488.200 378.987, 1491.500 378.985 C 1505.592 378.975, 1514.929 369.586, 1519.331 351 C 1523.486 333.456, 1524.451 319.056, 1524.423 275 C 1524.399 236.551, 1524.184 230.987, 1522.168 216.627 C 1520.942 207.897, 1519.503 199.939, 1518.969 198.943 C 1518.436 197.947, 1518 196.402, 1518 195.511 C 1518 194.620, 1517.042 191.777, 1515.872 189.195 C 1510.619 177.608, 1502.439 171.959, 1491.054 172.056 C 1487.303 172.088, 1482.699 172.844, 1480.288 173.823 M 750.086 361.750 C 752.955 369.362, 766.502 378.076, 765.245 371.501 C 764.690 368.596, 759.638 363.876, 754.012 361.006 C 748.980 358.439, 748.848 358.464, 750.086 361.750 M 1877.500 633.017 C 1850.759 638.275, 1832.447 648.216, 1814.286 667.335 C 1800.196 682.169, 1792.415 697.085, 1787.335 719 C 1784.610 730.754, 1784.814 756.724, 1787.724 768.500 C 1794.940 797.711, 1805.788 812.821, 1852.699 859 C 1886.576 892.348, 1891.610 899.779, 1889.565 913.417 C 1888.937 917.602, 1884.621 924.903, 1881.075 927.777 C 1876.005 931.887, 1870.468 933.500, 1861.500 933.481 C 1856.550 933.470, 1850.250 932.841, 1847.500 932.082 C 1831.289 927.610, 1813.148 917.754, 1792.649 902.280 C 1789.431 899.851, 1786.165 898.107, 1785.390 898.404 C 1784.200 898.861, 1784.022 907.162, 1784.241 952.198 L 1784.500 1005.452 1790.863 1009.299 C 1819.895 1026.853, 1846.984 1035, 1876.319 1035 C 1899.584 1035, 1921.956 1030.209, 1940.205 1021.319 C 1971.134 1006.251, 1992.975 980.006, 2002.053 947 C 2004.567 937.859, 2007 919.152, 2007 908.964 C 2007 896.427, 2004.460 879.934, 2000.781 868.584 C 1992.766 843.856, 1975.803 823.685, 1932.863 787.820 C 1911.887 770.300, 1906.497 764.858, 1902.250 756.912 C 1898.250 749.428, 1897.951 743.477, 1901.250 737.020 C 1904.322 731.008, 1909.242 727.397, 1917.199 725.315 C 1923.593 723.642, 1924.369 723.643, 1934.199 725.336 C 1939.865 726.312, 1944.927 727.536, 1945.450 728.055 C 1945.972 728.575, 1946.968 729, 1947.662 729 C 1951.761 729, 1974.361 741.744, 1986.257 750.763 C 1990.271 753.806, 1992.166 754.730, 1992.517 753.814 C 1992.794 753.091, 1992.903 730.031, 1992.760 702.568 L 1992.500 652.637 1982.653 648.344 C 1965.425 640.832, 1948.155 635.695, 1929.500 632.532 C 1916.965 630.407, 1889.469 630.663, 1877.500 633.017 M 2158 632.051 C 2146.606 633.467, 2135.266 635.954, 2127.500 638.739 C 2094.480 650.582, 2061.200 681.524, 2043.540 716.799 C 2031.787 740.277, 2026.187 761.572, 2022.571 796.546 C 2021.720 804.771, 2020.519 816.252, 2019.900 822.061 C 2017.663 843.088, 2021.841 883.826, 2028.979 910.579 C 2040.843 955.043, 2055.902 978.020, 2089.493 1002.914 C 2105.700 1014.924, 2108.542 1016.752, 2119.598 1022.272 C 2137.853 1031.387, 2152.049 1034.408, 2176.500 1034.382 C 2195.943 1034.361, 2205.792 1032.695, 2226.750 1025.878 L 2239 1021.894 2239 972.947 C 2239 946.026, 2238.738 924, 2238.419 924 C 2238.099 924, 2232.808 925.525, 2226.660 927.388 C 2198.815 935.830, 2183.896 934.729, 2167.195 923.001 C 2152.069 912.378, 2144.212 898.367, 2138.865 872.478 C 2136.856 862.751, 2136.604 858.709, 2136.654 837 C 2136.742 799.214, 2140 779.049, 2149.015 760.500 C 2158.474 741.038, 2172.083 729.248, 2188.913 725.937 C 2199.124 723.928, 2213.804 726.986, 2232.572 735.031 C 2236.344 736.648, 2237.507 736.805, 2238.153 735.787 C 2238.602 735.079, 2238.976 713.515, 2238.985 687.866 L 2239 641.232 2226.250 638.088 C 2219.238 636.359, 2209.675 634.259, 2205 633.421 C 2194.585 631.555, 2168.178 630.785, 2158 632.051 M 1346 832.500 L 1346 1026 1400 1026 L 1454 1026 1454 832.500 L 1454 639 1400 639 L 1346 639 1346 832.500 M 1502.667 639.667 C 1502.300 640.033, 1502 727.108, 1502 833.167 L 1502 1026 1556 1026 L 1610 1026 1610.039 955.250 C 1610.074 892.938, 1610.249 884.893, 1611.511 887.799 C 1612.300 889.613, 1623.100 921.338, 1635.511 958.299 L 1658.078 1025.500 1716.539 1025.758 C 1748.693 1025.900, 1775 1025.828, 1775 1025.599 C 1775 1025.229, 1711.294 880.714, 1702.982 862.227 C 1701.183 858.227, 1699.889 854.810, 1700.106 854.632 C 1700.323 854.455, 1706.160 851.578, 1713.078 848.239 C 1733.653 838.308, 1745.233 827.227, 1753.563 809.500 C 1761.207 793.234, 1763.164 779.060, 1761.917 749 C 1761.371 735.834, 1760.694 730.480, 1758.566 722.500 C 1753.191 702.354, 1746.484 690.298, 1733.529 677.500 C 1713.072 657.291, 1684.782 643.556, 1656.500 640.104 C 1646.671 638.904, 1503.835 638.498, 1502.667 639.667 M 2272 832.500 L 2272 1026 2326.500 1026 L 2381 1026 2381 950.500 L 2381 875 2403.500 875 L 2426 875 2426 950.500 L 2426 1026 2480 1026 L 2534 1026 2534 832.500 L 2534 639 2480 639 L 2426 639 2426 708.500 L 2426 778 2403.500 778 L 2381 778 2381 708.500 L 2381 639 2326.500 639 L 2272 639 2272 832.500 M 1610 766.406 C 1610 803.283, 1610.218 810, 1611.412 810 C 1615.023 810, 1628.441 806.898, 1632.394 805.150 C 1638.340 802.520, 1644.641 795.997, 1647.852 789.148 C 1650.372 783.773, 1650.497 782.750, 1650.431 768 C 1650.326 744.521, 1647.281 734.593, 1638.629 729.523 C 1634.545 727.130, 1625.922 724.909, 1615.250 723.504 L 1610 722.812 1610 766.406 M 2601.500 938.409 C 2583.495 942.871, 2575.654 956.239, 2575.641 982.500 C 2575.628 1006.677, 2581.944 1022.281, 2594.368 1028.764 C 2598.865 1031.111, 2600.675 1031.446, 2609 1031.471 C 2617.587 1031.497, 2619.077 1031.212, 2624.500 1028.500 C 2635.610 1022.945, 2640.293 1013.215, 2642.159 991.811 C 2643.084 981.204, 2643.036 978.893, 2641.869 977.726 C 2640.331 976.188, 2618.824 974.667, 2612.692 975.662 L 2609.257 976.220 2608.568 984.716 C 2608.189 989.389, 2608.108 993.441, 2608.388 993.722 C 2608.669 994.002, 2610.384 994.533, 2612.199 994.901 C 2615.050 995.479, 2615.544 996.028, 2615.824 998.924 C 2616.297 1003.832, 2615.304 1006.687, 2612.904 1007.315 C 2609.667 1008.161, 2606.214 1006.400, 2604.004 1002.775 C 2602.257 999.909, 2602.007 997.728, 2602.004 985.299 C 2601.998 963.308, 2604.138 957.312, 2611.685 958.177 C 2614.258 958.472, 2616.644 961.672, 2619.216 968.278 C 2619.750 969.650, 2639.827 959.769, 2640.318 957.893 C 2640.869 955.785, 2635.352 947.315, 2631.092 943.731 C 2624.003 937.766, 2612.469 935.691, 2601.500 938.409 M 2700.397 937.570 C 2699.790 937.844, 2697.323 947.698, 2694.914 959.468 C 2692.505 971.238, 2690.386 980.719, 2690.205 980.538 C 2690.024 980.358, 2688.507 971.050, 2686.834 959.855 C 2685.161 948.660, 2683.276 939.169, 2682.646 938.765 C 2681.130 937.793, 2653.840 937.814, 2652.308 938.788 C 2650.586 939.883, 2643.663 1027.889, 2645.157 1029.689 C 2646.666 1031.507, 2668.859 1031.562, 2669.515 1029.750 C 2669.764 1029.063, 2670.537 1016.809, 2671.234 1002.519 L 2672.500 976.539 2676.346 1002.519 C 2678.480 1016.936, 2680.705 1028.827, 2681.346 1029.235 C 2681.981 1029.639, 2686.609 1029.976, 2691.632 1029.985 L 2700.764 1030 2702.511 1020.250 C 2708.628 986.118, 2708.599 986.247, 2709.310 990.500 C 2709.677 992.700, 2709.983 1002.038, 2709.989 1011.250 C 2709.998 1025.467, 2710.227 1028, 2711.500 1028 C 2712.325 1028, 2713 1028.386, 2713 1028.857 C 2713 1029.328, 2717.511 1030.025, 2723.024 1030.404 C 2731.094 1030.960, 2733.328 1030.814, 2734.486 1029.657 C 2735.737 1028.406, 2735.538 1022.570, 2732.965 984.859 C 2731.337 961.012, 2730.004 940.973, 2730.003 940.329 C 2730.001 939.686, 2728.762 938.924, 2727.250 938.637 C 2723.110 937.850, 2701.661 936.998, 2700.397 937.570 M 2742.592 937.688 C 2740.755 938.188, 2740.709 939.181, 2741.340 964.354 C 2741.701 978.734, 2741.997 999.163, 2741.998 1009.750 L 2742 1029 2760.250 1028.991 C 2786.621 1028.979, 2787.733 1028.774, 2794.591 1022.661 C 2800.961 1016.983, 2803.945 1011.496, 2803.978 1005.399 C 2804.023 997.074, 2800.344 991.173, 2791.111 984.761 L 2786.723 981.713 2790.574 979.840 C 2799.526 975.486, 2802.952 968.292, 2800.993 957.964 C 2799.054 947.738, 2795.403 943.316, 2787 941.018 C 2779.936 939.086, 2746.632 936.589, 2742.592 937.688 M 2811.114 938.363 C 2810.174 939.495, 2810.081 949.977, 2810.700 984.663 L 2811.500 1029.500 2824.500 1029.500 L 2837.500 1029.500 2837.773 1011.250 C 2838.043 993.122, 2838.060 993, 2840.273 993.014 C 2841.498 993.021, 2843.512 993.299, 2844.750 993.630 C 2846.969 994.225, 2847 994.461, 2847 1010.917 C 2847 1022.559, 2847.363 1027.963, 2848.200 1028.800 C 2849.460 1030.060, 2869.408 1030.548, 2872.418 1029.393 C 2873.827 1028.852, 2874 1023.989, 2874 984.827 C 2874 959.247, 2873.606 940.133, 2873.058 939.109 C 2872.248 937.596, 2870.532 937.339, 2860.808 937.277 C 2853.317 937.228, 2849.252 937.591, 2848.765 938.352 C 2848.361 938.983, 2848.021 942.875, 2848.009 947 C 2847.998 951.125, 2847.699 958.212, 2847.346 962.750 C 2846.653 971.652, 2846.330 971.999, 2840.250 970.370 C 2838.048 969.779, 2838 969.457, 2837.985 955.133 C 2837.976 947.085, 2837.639 940.002, 2837.235 939.393 C 2836.812 938.756, 2831.374 937.992, 2824.414 937.592 C 2814.417 937.019, 2812.119 937.152, 2811.114 938.363 M 2767 965.611 L 2767 972.223 2770.750 971.522 C 2775.793 970.579, 2777 969.383, 2777 965.327 C 2777 962.359, 2776.533 961.703, 2773.532 960.449 C 2767.428 957.899, 2767 958.237, 2767 965.611 M 2767.636 996.640 C 2767.286 999.191, 2767 1002.566, 2767 1004.140 C 2767 1006.731, 2767.323 1007, 2770.429 1007 C 2774.941 1007, 2777 1004.784, 2777 999.929 C 2777 995.378, 2774.288 992, 2770.636 992 C 2768.582 992, 2768.189 992.608, 2767.636 996.640" stroke="none" fill="#040404" fill-rule="evenodd"/><path d="M 1016 301 L 1016 525 1079 525 L 1142 525 1142 438 L 1142 351 1168 351 L 1194 351 1194 438 L 1194 525 1257 525 L 1320 525 1320 301 L 1320 77 1257 77 L 1194 77 1194 157.500 L 1194 238 1168 238 L 1142 238 1142 157.500 L 1142 77 1079 77 L 1016 77 1016 301 M 1039 301.500 L 1039 502 1079 502 L 1119 502 1119 414.500 L 1119 327 1168.500 327 L 1218 327 1218 414.500 L 1218 502 1257 502 L 1296 502 1296 301.500 L 1296 101 1257 101 L 1218 101 1218 181 L 1218 261 1168.500 261 L 1119 261 1119 181 L 1119 101 1079 101 L 1039 101 1039 301.500 M 556.387 225.187 C 558.211 234.303, 567.756 249.878, 574.822 255.267 C 582.696 261.271, 603.711 269.616, 605.777 267.559 C 606.350 266.989, 608.046 229.106, 607.535 228.284 C 607.158 227.676, 564.806 222.006, 560.625 222.003 L 555.750 222 556.387 225.187 M 456.578 225.554 C 409.803 232.451, 364.992 246.150, 322.500 266.542 C 255.636 298.631, 192.703 351.295, 149.850 411.022 C 120.083 452.510, 101.351 488.766, 85.795 535 C 76.366 563.026, 74.944 568.695, 67.490 608 C 64.802 622.173, 63.015 639.015, 61.866 660.988 C 59.606 704.241, 64.026 749.323, 74.955 794.500 C 78.717 810.049, 90.337 844.941, 97.268 861.500 C 115.830 905.843, 142.317 948.325, 174.892 986 C 182.206 994.459, 206.145 1019, 207.083 1019 C 207.419 1019, 208.590 1018.212, 209.685 1017.250 C 211.269 1015.858, 212.133 1012.428, 213.903 1000.500 C 216.124 985.536, 225.603 936.140, 230.983 911.500 C 235.382 891.355, 238.874 861.071, 239.146 840.718 C 239.251 832.830, 239.542 831.552, 242.006 828.150 C 243.515 826.067, 248.068 822.277, 252.125 819.728 C 257.140 816.577, 262.771 811.565, 269.723 804.068 C 285.436 787.120, 287.525 781.719, 289.128 753.894 C 290.097 737.072, 290.038 734.975, 288.511 732.021 C 286.890 728.886, 286.903 721.295, 288.547 712 C 288.908 709.959, 288.374 709.196, 285.635 707.844 C 282.308 706.200, 282.261 706.210, 279.731 709.094 C 276.299 713.005, 273.489 712.778, 269.301 708.250 C 262.545 700.946, 258.334 689.137, 259.446 680.613 C 261.528 664.658, 272.934 640.508, 282.353 632.111 C 284.580 630.125, 289.800 625.409, 293.952 621.630 C 315.657 601.877, 336.669 587.483, 351.799 582.002 C 359.914 579.062, 370.651 576.191, 382.500 573.791 C 385.296 573.224, 414.393 572.471, 448.500 572.082 C 498.958 571.507, 511.315 571.091, 520 569.671 C 535.968 567.062, 545.598 563.771, 554.094 558.018 C 558.167 555.260, 564.425 551.030, 568 548.619 C 571.575 546.207, 580.800 541.296, 588.500 537.705 C 596.200 534.115, 604.975 530.021, 608 528.607 C 618.831 523.546, 626.683 515.544, 632.400 503.743 C 636.609 495.053, 637.998 487.467, 639.037 467.500 C 640.885 432.003, 641.895 422.528, 645.147 410.205 C 649.482 393.775, 649.405 394.423, 647.352 391.605 C 645.083 388.490, 644.481 388.458, 638.456 391.122 C 632.706 393.666, 626.553 393.326, 617.629 389.972 C 607.996 386.352, 597.186 374.954, 583.067 353.532 C 573.520 339.046, 571.704 333.978, 571.591 321.500 C 571.523 314.086, 571.112 311.086, 570 309.900 C 569.175 309.020, 562.666 304.987, 555.536 300.938 C 526.940 284.697, 509.843 269.140, 491.589 242.750 C 487.880 237.387, 484.479 233, 484.030 233 C 483.582 233, 481.499 230.750, 479.402 228 C 477.305 225.250, 474.894 223.046, 474.045 223.103 C 473.195 223.160, 465.335 224.262, 456.578 225.554 M 643 240.031 C 643 247.825, 646.721 256.188, 654.554 266 C 664.920 278.985, 668.955 283.007, 680.015 291.379 C 690.970 299.671, 706.380 308.020, 707.909 306.491 C 708.455 305.945, 709.432 298.749, 710.081 290.499 C 710.730 282.250, 711.376 274.150, 711.518 272.500 C 711.659 270.850, 711.938 267.494, 712.138 265.042 L 712.500 260.584 694.500 253.363 C 678.053 246.764, 654.305 238.901, 646.250 237.388 C 643.124 236.801, 643 236.902, 643 240.031 M 812.891 330.794 C 810.476 332.881, 805.518 336.689, 801.874 339.256 C 793.058 345.467, 792.464 347.978, 798.773 352.354 C 837.398 379.141, 854.857 393.143, 858.675 400.393 C 859.513 401.984, 860.250 405.809, 860.312 408.893 C 860.404 413.456, 859.819 415.617, 857.170 420.500 C 852.749 428.649, 845.224 437.888, 840.142 441.405 C 836.099 444.203, 835.349 444.342, 819.722 445.162 C 798.939 446.254, 792.809 447.299, 781.252 451.723 C 768.084 456.763, 768.074 456.808, 776.391 473.999 C 789.154 500.379, 794.091 516.931, 798.483 548.069 C 802.109 573.779, 802.508 583.284, 800.579 598 C 797.071 624.764, 788.389 654.516, 767.894 710 C 759.706 732.168, 755.099 740.249, 746.468 747.580 C 723.567 767.032, 721.337 769.708, 720.657 778.556 C 720.448 781.275, 719.109 793.625, 717.682 806 C 711.341 860.969, 710.976 908.687, 716.553 953.500 C 718.885 972.240, 723.877 997.828, 726.648 1005.239 C 729.358 1012.491, 737.931 1025.254, 746.411 1034.662 C 749.306 1037.873, 754.262 1043.860, 757.425 1047.967 L 763.176 1055.435 762.496 1060.967 C 761.828 1066.409, 759.842 1070, 757.500 1070 C 756.845 1070, 755.453 1070.949, 754.405 1072.108 C 753.357 1073.268, 750.428 1075.267, 747.895 1076.551 C 743.948 1078.553, 741.733 1078.898, 732.395 1078.966 C 717.305 1079.076, 713.331 1078.548, 707 1075.590 C 703.975 1074.176, 700.947 1073.015, 700.270 1073.010 C 698.846 1072.998, 693.023 1063.279, 693.009 1060.890 C 693.004 1060.004, 691.949 1057.730, 690.665 1055.838 C 689.380 1053.945, 688.026 1050.882, 687.656 1049.032 C 686.663 1044.063, 682.772 1039.575, 678.130 1038.043 C 675.897 1037.306, 673.098 1035.669, 671.911 1034.405 C 669.798 1032.156, 669.744 1031.338, 669.328 995.391 C 669.018 968.538, 668.514 956.820, 667.452 951.772 C 666.653 947.975, 665.989 942.086, 665.976 938.685 C 665.963 935.283, 665.510 930.700, 664.970 928.500 C 664.430 926.300, 663.338 920.046, 662.545 914.601 C 661.752 909.157, 660.660 904.260, 660.118 903.718 C 658.545 902.145, 656.320 903.598, 655.604 906.668 C 653.317 916.473, 651.342 974.406, 652.807 988.723 C 655.361 1013.691, 662.483 1036.246, 670.576 1045 C 671.848 1046.375, 674.600 1050.038, 676.694 1053.141 C 678.787 1056.244, 682.226 1061.268, 684.335 1064.305 L 688.169 1069.829 686.124 1074.453 C 683.764 1079.789, 679.825 1082.008, 669 1084.103 C 654.755 1086.859, 625.811 1084.692, 617.201 1080.225 C 610.892 1076.952, 609.552 1073.377, 609.150 1058.750 C 608.883 1049.044, 608.485 1046, 607.481 1046 C 606.757 1046, 605.471 1045.734, 604.624 1045.409 C 603.554 1044.999, 602.885 1045.609, 602.433 1047.409 C 601.615 1050.671, 600.324 1050.624, 596.312 1047.189 C 589.607 1041.446, 589.548 1037.696, 595.553 998.909 C 598.057 982.734, 600.041 966.575, 599.962 963 C 599.883 959.425, 600.137 950.200, 600.527 942.500 C 601.081 931.554, 600.883 926.482, 599.618 919.250 C 598.535 913.060, 598 904.121, 598 892.232 C 598 872.350, 596.686 849.211, 594.410 829 C 592.862 815.262, 590.494 800.025, 589.854 799.687 C 589.659 799.584, 588.451 798.911, 587.169 798.191 C 585.082 797.019, 584.591 797.149, 582.467 799.441 C 580.183 801.905, 579.623 802.007, 567.298 802.199 C 537.220 802.666, 512.971 800.906, 502.078 797.465 C 495.986 795.540, 493.606 795.199, 491.598 795.963 C 489.113 796.907, 488.998 797.289, 488.962 804.725 L 488.924 812.500 476.833 826.500 C 463.056 842.453, 454.757 852.922, 447.355 863.684 C 444.525 867.798, 441.310 871.795, 440.210 872.566 C 437.419 874.520, 433.517 881.492, 431.609 887.932 C 427.834 900.675, 430.374 910.343, 445.425 940.500 C 467.530 984.791, 484.188 1009.462, 513.741 1041.677 C 519.380 1047.825, 524.446 1054.042, 524.997 1055.492 C 525.549 1056.943, 526 1060.642, 526 1063.711 C 526 1068.988, 525.742 1069.569, 521.264 1074.356 L 516.527 1079.420 498.514 1079.291 C 475.283 1079.124, 467.659 1077.631, 461.253 1071.991 C 458.759 1069.796, 456.306 1068, 455.803 1068 C 454.461 1068, 451.301 1060.198, 450.538 1055 C 449.404 1047.271, 448.166 1045.229, 443.546 1043.464 C 440.085 1042.143, 438.534 1042.048, 435.166 1042.955 C 431.767 1043.871, 430.612 1043.792, 428.659 1042.513 C 426.626 1041.180, 426.206 1039.909, 425.733 1033.652 C 425.028 1024.334, 422.502 1014.136, 419.007 1006.500 C 417.496 1003.200, 415.699 998.700, 415.012 996.500 C 410.318 981.463, 391.056 946.818, 373.124 921.160 C 368.381 914.373, 363.512 907.398, 362.303 905.660 C 361 903.786, 359.271 898.368, 358.053 892.343 C 353.493 869.784, 355.860 860.691, 373.473 833.118 L 382.021 819.737 378.998 816.848 L 375.975 813.959 372.738 817.655 C 370.957 819.687, 359.600 830.117, 347.500 840.832 C 335.400 851.547, 319.278 866.431, 311.674 873.907 C 293.715 891.564, 291.230 896.210, 281.555 930.222 C 273.461 958.678, 269.262 985.608, 270.519 1001 C 271.557 1013.695, 276.386 1025.276, 288.015 1042.957 C 291.436 1048.158, 294.800 1054.016, 295.491 1055.975 C 296.183 1057.934, 297.703 1061.104, 298.870 1063.019 C 300.038 1064.933, 300.991 1067.175, 300.990 1068 C 300.987 1069.466, 297.259 1072.151, 291.750 1074.654 C 290.237 1075.341, 289 1076.555, 289 1077.352 C 289 1079.918, 280.282 1081.190, 266.823 1080.588 C 251.032 1079.883, 241.586 1076.883, 233.022 1069.854 L 229.544 1067 153.272 1067 L 77 1067 77 1099 L 77 1131 1475.500 1131 L 2874 1131 2874 1099 L 2874 1067 1827.413 1067 L 780.826 1067 792.663 1058.386 C 815.157 1042.016, 828.583 1030.464, 850.038 1009.024 C 875.147 983.930, 892.706 962.612, 910.183 936 C 931.717 903.211, 950.239 864.677, 962.459 827.245 C 980.565 771.780, 988.049 716.898, 985.165 660.724 C 983.763 633.426, 982.057 619.583, 976.880 593.500 C 972.031 569.064, 968.687 556.313, 961.674 535.500 C 939.062 468.398, 901.117 407.048, 851.547 357.444 C 838.139 344.026, 819.403 327, 818.046 327 C 817.625 327, 815.306 328.707, 812.891 330.794 M 1345 555 L 1345 587 2108 587 L 2871 587 2871 555 L 2871 523 2108 523 L 1345 523 1345 555 M 1016 809 L 1016 1033 1079 1033 L 1142 1033 1142 945.500 L 1142 858 1168 858 L 1194 858 1194 945.500 L 1194 1033 1257 1033 L 1320 1033 1320 809 L 1320 585 1257 585 L 1194 585 1194 665 L 1194 745 1168 745 L 1142 745 1142 665 L 1142 585 1079 585 L 1016 585 1016 809" stroke="none" fill="#642c04" fill-rule="evenodd"></path>
    
    </svg>