<?xml version="1.0" standalone="no"?>
<!DOCTYPE svg PUBLIC "-//W3C//DTD SVG 20010904//EN"
 "http://www.w3.org/TR/2001/REC-SVG-20010904/DTD/svg10.dtd">
<svg version="1.0" xmlns="http://www.w3.org/2000/svg"
 width="820.000000pt" height="820.000000pt" viewBox="0 0 820.000000 820.000000"
 preserveAspectRatio="xMidYMid meet">
<metadata>
Created by potrace 1.14, written by Peter Selinger 2001-2017
</metadata>
<g transform="translate(0.000000,820.000000) scale(0.100000,-0.100000)"
fill="#000000" stroke="none">
<path d="M5174 6858 c-2 -3 -31 -5 -64 -4 -33 1 -60 -2 -60 -6 0 -4 -18 -6
-39 -4 -22 2 -43 1 -46 -3 -6 -6 -43 -10 -112 -14 -18 -1 -33 -5 -33 -9 0 -5
-11 -6 -25 -4 -13 3 -27 1 -30 -4 -3 -5 -13 -9 -23 -9 -9 0 -30 -3 -47 -7 -16
-3 -40 -7 -52 -7 -13 -1 -23 -5 -23 -9 0 -4 -8 -7 -17 -7 -24 1 -64 -7 -83
-15 -8 -3 -26 -8 -40 -10 -14 -3 -26 -5 -27 -7 -2 -1 -7 -3 -13 -4 -5 -1 -11
-3 -12 -5 -3 -2 -19 -5 -58 -13 -14 -3 -42 -12 -63 -20 -20 -9 -37 -13 -37
-10 0 3 -7 0 -15 -7 -8 -7 -15 -10 -15 -6 0 4 -13 0 -29 -8 -16 -9 -31 -12
-35 -9 -3 4 -6 1 -6 -6 0 -7 -7 -11 -15 -8 -8 4 -17 2 -21 -4 -3 -6 -12 -8
-19 -5 -8 3 -15 0 -17 -5 -2 -6 -12 -12 -23 -14 -11 -2 -22 -4 -25 -5 -3 -1
-8 -2 -12 -1 -5 0 -8 -4 -8 -10 0 -5 -4 -7 -10 -4 -5 3 -10 1 -10 -6 0 -7 -3
-9 -7 -6 -3 4 -12 2 -20 -4 -7 -6 -13 -8 -13 -5 0 4 -10 1 -22 -6 -13 -7 -26
-11 -30 -10 -5 1 -8 -3 -8 -9 0 -5 -4 -7 -10 -4 -5 3 -10 1 -10 -4 0 -6 -9
-11 -19 -11 -11 0 -23 -5 -26 -10 -4 -6 -11 -8 -16 -5 -5 4 -9 1 -9 -4 0 -6
-5 -11 -11 -11 -13 0 -141 -61 -149 -71 -3 -3 -18 -9 -33 -13 -16 -4 -38 -15
-49 -26 -12 -11 -25 -17 -30 -14 -4 3 -8 1 -8 -5 0 -6 -11 -13 -25 -17 -14 -3
-25 -9 -25 -13 0 -3 -18 -15 -40 -25 -22 -11 -40 -23 -40 -28 0 -5 -4 -6 -10
-3 -5 3 -10 1 -10 -6 0 -7 -3 -10 -6 -6 -3 3 -15 -3 -27 -13 -11 -11 -24 -17
-29 -14 -4 3 -11 -2 -14 -10 -3 -9 -13 -16 -21 -16 -7 0 -25 -11 -39 -25 -14
-14 -29 -23 -34 -20 -4 3 -10 -2 -14 -10 -3 -8 -10 -15 -16 -15 -6 0 -20 -9
-32 -20 -12 -10 -24 -17 -28 -15 -5 3 -11 -2 -14 -11 -3 -8 -10 -12 -16 -9 -5
3 -10 -2 -10 -11 0 -10 -3 -15 -6 -12 -3 4 -14 -2 -25 -13 -11 -11 -24 -17
-29 -14 -6 4 -13 0 -16 -9 -3 -8 -24 -27 -47 -42 -23 -16 -52 -38 -63 -49 -47
-44 -84 -74 -84 -68 0 3 -8 -4 -19 -15 -10 -12 -21 -22 -24 -22 -4 0 -19 -12
-35 -27 -16 -16 -51 -46 -77 -68 -67 -56 -130 -115 -188 -176 -15 -16 -32 -29
-37 -29 -6 0 -10 -5 -10 -11 0 -6 -40 -51 -89 -100 -49 -49 -88 -89 -85 -89 2
0 -15 -20 -39 -45 -23 -25 -60 -66 -82 -90 -22 -25 -50 -56 -62 -70 -13 -13
-23 -29 -23 -34 0 -6 -9 -16 -20 -23 -11 -7 -20 -17 -20 -21 0 -5 -12 -22 -27
-38 -56 -60 -63 -69 -57 -69 4 0 -5 -11 -19 -24 -14 -13 -23 -26 -20 -29 3 -3
-4 -12 -16 -19 -12 -7 -21 -18 -21 -25 0 -7 -4 -13 -10 -13 -5 0 -9 -4 -7 -9
1 -5 -9 -18 -22 -30 -13 -12 -20 -21 -16 -21 4 0 -2 -8 -13 -19 -12 -10 -19
-21 -15 -25 3 -3 0 -6 -7 -6 -7 0 -11 -3 -7 -6 3 -3 1 -11 -4 -18 -44 -52 -59
-73 -71 -95 -7 -14 -17 -29 -23 -33 -5 -4 -7 -8 -3 -8 7 0 -11 -25 -39 -55 -7
-8 -13 -17 -13 -21 0 -4 -22 -42 -50 -85 -27 -43 -50 -82 -50 -87 0 -6 -7 -13
-16 -16 -9 -4 -14 -9 -11 -12 3 -3 -3 -15 -13 -27 -11 -12 -19 -25 -19 -30 0
-4 -17 -33 -37 -65 -21 -31 -49 -79 -63 -107 -14 -27 -28 -52 -32 -55 -5 -4
-27 -45 -50 -92 -17 -34 -34 -62 -46 -76 -7 -7 -16 -24 -19 -38 -3 -13 -10
-24 -16 -24 -5 0 -7 -4 -4 -9 3 -5 -4 -20 -15 -35 -11 -14 -17 -26 -12 -26 4
0 1 -6 -8 -13 -9 -7 -17 -15 -17 -20 -1 -4 -8 -20 -16 -36 -9 -16 -13 -31 -10
-33 2 -3 -2 -11 -11 -18 -8 -7 -15 -18 -15 -25 0 -8 -3 -15 -7 -17 -13 -5 -63
-105 -56 -111 3 -4 -2 -9 -11 -13 -9 -3 -13 -10 -10 -15 3 -5 0 -9 -6 -9 -6 0
-9 -4 -6 -8 3 -5 -4 -19 -15 -30 -11 -12 -17 -22 -13 -22 3 0 1 -6 -5 -13 -6
-8 -8 -17 -4 -20 3 -4 0 -7 -7 -7 -7 0 -11 -3 -7 -6 3 -3 -3 -20 -12 -38 -31
-55 -55 -101 -57 -108 -1 -5 -2 -9 -4 -10 -1 -2 -3 -12 -5 -23 -2 -11 -9 -21
-15 -23 -5 -2 -8 -8 -5 -12 3 -5 -5 -18 -17 -29 -12 -12 -18 -21 -14 -21 5 0
2 -7 -5 -16 -7 -9 -15 -25 -16 -37 -2 -12 -7 -24 -11 -27 -4 -3 -9 -14 -10
-25 -2 -11 -8 -22 -13 -23 -5 -2 -7 -7 -4 -12 3 -4 -2 -13 -10 -20 -8 -7 -15
-18 -15 -25 0 -8 -4 -15 -9 -17 -5 -1 -12 -18 -14 -37 -3 -19 -12 -38 -19 -42
-7 -5 -10 -9 -6 -9 4 0 -6 -24 -22 -54 -17 -30 -30 -59 -30 -65 0 -6 -21 -55
-47 -108 -26 -54 -48 -107 -49 -119 -1 -12 -10 -34 -19 -48 -9 -14 -18 -31
-19 -38 -2 -7 -11 -31 -21 -53 -10 -22 -18 -44 -17 -49 2 -4 -3 -14 -9 -22 -6
-8 -8 -14 -5 -14 4 0 -2 -13 -14 -30 -12 -16 -19 -30 -15 -30 3 0 -2 -11 -11
-25 -9 -14 -13 -25 -10 -25 4 0 1 -10 -6 -22 -7 -13 -14 -34 -16 -48 -2 -14
-7 -27 -13 -28 -5 -2 -7 -8 -3 -13 3 -5 0 -9 -7 -9 -7 0 -9 -3 -6 -7 4 -3 2
-12 -4 -20 -6 -7 -8 -13 -4 -13 4 0 2 -6 -4 -14 -7 -8 -14 -24 -16 -37 -3 -12
-8 -25 -12 -28 -5 -3 -10 -22 -11 -41 -2 -19 -8 -37 -13 -38 -5 -2 -7 -8 -3
-13 3 -5 1 -9 -5 -9 -6 0 -8 -6 -5 -14 3 -8 1 -17 -5 -21 -6 -3 -11 -15 -11
-26 0 -10 -5 -19 -11 -19 -5 0 -8 -4 -5 -8 3 -5 -1 -21 -9 -35 -8 -15 -14 -30
-15 -32 0 -3 0 -6 -1 -7 -3 -10 -10 -46 -11 -61 -1 -9 -5 -17 -8 -17 -3 0 -6
-8 -7 -17 0 -22 -35 -116 -45 -123 -4 -3 -3 -12 2 -20 7 -12 470 -14 3254 -14
2877 -1 3246 1 3249 14 3 17 -42 62 -55 54 -4 -3 -8 -1 -8 3 0 5 -8 9 -17 10
-41 3 -63 8 -63 13 0 3 -8 6 -17 7 -10 0 -29 4 -43 7 -14 4 -36 9 -50 12 -13
3 -27 8 -30 12 -3 4 -18 9 -35 10 -16 2 -32 8 -33 13 -2 5 -8 7 -13 3 -5 -3
-9 0 -9 6 0 6 -4 8 -10 5 -5 -3 -16 -3 -22 2 -7 4 -20 8 -28 10 -8 1 -16 6
-18 12 -2 5 -10 7 -18 4 -8 -3 -14 0 -14 6 0 6 -6 8 -14 5 -7 -3 -16 2 -19 10
-4 9 -13 13 -22 10 -8 -3 -15 -1 -15 6 0 6 -4 8 -10 5 -5 -3 -10 -1 -10 5 0 6
-5 8 -11 4 -6 -3 -15 -1 -19 5 -4 7 -13 14 -21 16 -38 9 -59 18 -59 26 0 5 -7
9 -15 9 -8 0 -15 4 -15 10 0 5 -7 7 -15 4 -8 -4 -15 -1 -15 6 0 6 -4 9 -8 6
-5 -3 -18 3 -29 13 -11 11 -34 26 -52 35 -18 10 -41 25 -52 34 -11 9 -23 17
-27 16 -4 0 -12 4 -18 10 -6 6 -23 20 -38 31 -15 11 -36 27 -46 35 -11 8 -31
24 -45 35 -14 11 -43 37 -65 58 -22 21 -40 34 -40 30 0 -4 -8 4 -18 20 -10 15
-20 25 -23 23 -2 -2 -17 9 -32 25 -16 16 -26 29 -23 29 3 0 -17 23 -44 51 -28
29 -48 54 -46 57 3 2 -13 21 -34 42 -22 21 -41 44 -42 51 -2 7 -7 19 -13 25
-5 6 -17 22 -25 34 -8 12 -23 31 -32 42 -10 11 -15 25 -12 29 3 5 0 9 -7 9 -7
0 -10 3 -6 6 3 3 -3 15 -13 26 -10 11 -16 27 -13 36 4 10 2 13 -5 8 -9 -6 -33
23 -38 47 -1 4 -2 8 -4 10 -1 1 -3 11 -5 22 -2 11 -9 21 -15 23 -5 2 -8 8 -4
13 3 5 1 9 -5 9 -8 0 -25 36 -23 50 0 3 -6 12 -13 20 -7 8 -14 20 -15 25 -3
28 -14 62 -24 74 -6 8 -10 16 -9 17 3 4 -2 21 -14 52 -3 9 -7 19 -7 22 -1 3
-7 14 -13 25 -10 18 -25 88 -26 123 0 6 -5 12 -10 12 -5 0 -7 6 -4 14 3 8 2
16 -3 18 -5 2 -11 21 -14 43 -3 22 -8 54 -12 70 -3 17 -7 37 -8 45 -1 9 -5 20
-8 26 -4 5 -5 22 -4 37 2 15 0 27 -4 27 -8 0 -10 69 -11 290 -1 168 10 355 20
355 1 0 4 14 6 30 4 32 12 70 15 70 1 0 4 11 14 60 1 6 5 16 9 23 5 6 6 12 3
12 -3 0 2 16 10 35 8 20 12 40 9 45 -3 5 -1 11 4 15 6 3 8 12 4 20 -3 8 0 15
6 15 6 0 8 7 5 15 -4 8 -1 15 5 15 6 0 11 9 11 20 0 11 5 20 11 20 5 0 8 4 4
9 -3 5 -1 12 5 16 6 4 8 11 5 16 -4 5 -1 9 4 9 6 0 10 3 10 8 -1 7 0 11 6 30
2 4 6 17 10 30 4 12 12 22 17 22 5 0 7 4 4 8 -3 5 3 18 14 29 10 12 16 24 13
27 -4 3 -1 6 5 6 7 0 12 9 12 20 0 11 5 20 11 20 5 0 7 5 4 10 -3 6 -1 10 4
10 6 0 11 5 11 11 0 5 13 24 30 42 16 18 30 37 30 44 0 6 18 30 40 52 22 22
40 43 40 47 0 4 33 38 73 76 99 94 110 103 130 111 9 3 17 11 17 17 0 5 7 10
15 10 8 0 15 4 15 8 0 5 20 19 45 32 25 13 45 26 45 30 0 8 39 23 53 21 4 -1
7 4 7 10 0 5 5 7 10 4 6 -3 10 -3 10 2 0 11 51 34 61 27 5 -3 9 0 9 6 0 6 5 8
10 5 6 -3 10 -1 10 5 0 7 6 10 14 7 8 -3 16 -1 18 4 2 5 13 11 26 12 12 0 22
5 22 10 0 5 7 7 15 3 8 -3 15 -1 15 5 0 6 7 9 15 6 8 -4 17 -2 20 4 4 5 11 7
16 4 5 -4 9 -2 9 3 0 6 15 10 34 10 19 0 40 3 47 7 6 4 30 9 53 11 22 1 41 4
41 5 0 1 38 2 85 3 47 1 90 5 95 7 9 5 70 4 70 -1 0 -1 25 -3 55 -5 30 -2 69
-6 85 -10 17 -3 36 -7 43 -7 6 -1 12 -5 12 -9 0 -5 7 -6 15 -3 8 4 22 1 30 -6
8 -7 15 -10 15 -6 0 3 12 1 28 -5 15 -6 38 -13 52 -16 14 -2 32 -11 41 -19 8
-8 19 -11 22 -7 4 3 7 1 7 -5 0 -6 7 -9 15 -6 8 4 15 2 15 -4 0 -5 23 -19 50
-31 28 -12 50 -26 50 -32 0 -6 5 -7 10 -4 6 3 10 1 10 -6 0 -7 3 -10 6 -6 6 6
17 -2 58 -40 13 -12 27 -19 30 -16 3 3 8 -2 12 -11 3 -9 10 -13 16 -10 5 3 12
-3 15 -15 3 -11 14 -23 24 -26 10 -4 19 -10 19 -15 0 -5 9 -12 20 -15 11 -3
20 -11 20 -16 0 -6 7 -17 15 -25 8 -9 15 -12 15 -8 0 9 23 -17 126 -143 14
-17 25 -34 24 -38 -1 -4 7 -14 18 -23 21 -19 47 -63 44 -74 -1 -5 3 -8 9 -8 5
0 7 -5 4 -10 -4 -6 -2 -9 5 -8 6 2 18 -10 28 -27 9 -16 23 -36 30 -43 7 -7 10
-18 7 -23 -4 -5 -1 -9 4 -9 6 0 11 -9 11 -20 0 -11 5 -20 11 -20 5 0 7 -4 4
-10 -3 -5 -1 -10 5 -10 6 0 8 -4 5 -10 -3 -5 -2 -10 3 -10 13 0 53 -81 46 -92
-3 -4 -1 -8 4 -8 5 0 13 -10 17 -22 4 -13 8 -25 9 -28 2 -3 9 -18 16 -35 7
-16 14 -32 14 -35 1 -3 5 -11 9 -17 5 -7 10 -21 12 -30 7 -38 10 -48 16 -53
10 -9 39 -90 31 -90 -4 0 -1 -4 6 -9 7 -4 14 -18 15 -29 1 -12 4 -22 7 -22 4
0 7 -13 8 -30 3 -51 5 -60 14 -60 4 0 8 -13 8 -28 0 -15 4 -32 9 -37 6 -6 12
-21 15 -35 3 -14 8 -36 11 -50 3 -14 7 -29 8 -35 2 -5 6 -15 10 -21 4 -7 5
-26 3 -43 -2 -17 0 -31 5 -31 5 0 7 -14 5 -30 -2 -17 0 -33 5 -36 5 -3 9 -14
9 -25 0 -11 4 -18 10 -14 5 3 7 12 3 20 -3 8 0 15 7 15 6 0 8 5 5 10 -3 6 -1
10 5 10 6 0 8 5 5 10 -3 6 -1 10 5 10 6 0 9 4 5 9 -3 6 3 14 12 20 10 6 14 11
10 11 -5 0 -1 10 7 22 9 12 16 28 16 35 0 6 5 24 12 40 6 15 12 35 14 43 2 8
7 16 13 18 5 2 7 10 4 18 -3 8 1 14 8 14 7 0 10 3 6 6 -3 4 1 20 9 36 9 17 18
42 21 57 8 40 11 56 13 59 2 1 3 5 4 10 1 4 7 17 14 28 6 12 9 24 5 27 -3 4 0
13 7 22 7 8 9 15 5 15 -4 0 -2 6 4 13 6 8 8 17 4 20 -3 4 -1 7 6 7 8 0 11 6 7
16 -3 9 -3 21 1 27 4 7 8 17 9 22 5 30 17 103 19 120 1 11 3 20 5 20 1 0 3 9
5 20 2 11 6 34 10 50 4 17 8 39 10 50 1 11 3 20 4 20 2 0 9 67 12 123 1 17 5
32 8 32 3 0 6 86 6 190 0 105 -3 190 -7 190 -4 0 -7 17 -6 38 0 20 -1 39 -2
42 -1 3 -3 19 -6 35 -8 63 -12 90 -14 90 -1 0 -3 7 -5 15 -2 8 -7 26 -10 40
-3 14 -8 34 -10 45 -11 58 -17 84 -32 130 -8 28 -20 55 -24 61 -5 6 -6 14 -2
17 3 4 2 7 -3 7 -9 0 -36 74 -34 93 0 4 -11 24 -24 44 -14 20 -23 40 -20 45 3
4 0 8 -5 8 -6 0 -11 7 -11 15 0 8 -5 15 -11 15 -5 0 -7 5 -4 10 3 6 1 10 -5
10 -7 0 -10 7 -6 15 3 9 -3 19 -14 25 -11 6 -20 17 -20 25 0 8 -5 15 -11 15
-5 0 -7 5 -4 10 3 6 1 10 -5 10 -6 0 -16 14 -21 30 -6 17 -15 30 -20 30 -5 0
-13 8 -16 17 -4 10 -16 28 -28 40 -11 12 -40 45 -65 73 -77 87 -176 186 -193
193 -9 3 -17 14 -17 22 0 9 -4 14 -9 11 -5 -3 -11 1 -15 9 -3 8 -10 15 -17 15
-6 0 -23 13 -39 30 -15 16 -30 26 -34 23 -3 -3 -6 -1 -6 6 0 7 -4 9 -10 6 -5
-3 -10 -1 -10 4 0 6 -7 11 -15 11 -8 0 -15 7 -15 16 0 8 -4 13 -9 10 -5 -3
-14 1 -21 9 -7 8 -19 15 -27 15 -7 0 -16 7 -19 15 -4 8 -10 12 -15 9 -5 -3
-12 2 -15 10 -3 9 -10 13 -15 10 -5 -3 -9 0 -9 6 0 6 -4 8 -10 5 -5 -3 -10 -1
-10 4 0 6 -18 18 -40 27 -22 9 -40 20 -40 26 0 5 -4 6 -10 3 -5 -3 -10 -2 -10
3 0 9 -21 18 -59 27 -8 2 -18 10 -22 17 -5 7 -12 13 -16 13 -4 1 -18 6 -29 13
-12 6 -24 9 -27 5 -4 -3 -9 1 -13 10 -3 9 -12 13 -20 10 -8 -3 -14 0 -14 7 0
6 -4 8 -10 5 -5 -3 -10 -1 -10 5 0 6 -4 8 -10 5 -5 -3 -10 -1 -10 6 0 7 -3 9
-7 6 -3 -4 -12 -2 -20 4 -7 6 -13 8 -13 4 0 -5 -8 -1 -17 8 -10 8 -20 16 -23
15 -18 0 -60 16 -60 23 0 5 -3 8 -7 8 -17 -3 -73 14 -73 22 0 5 -7 6 -15 3 -8
-4 -15 -2 -15 3 0 5 -12 10 -27 11 -16 1 -29 6 -31 12 -2 5 -9 7 -17 4 -7 -3
-16 0 -20 5 -3 6 -10 9 -15 6 -5 -3 -11 -1 -15 5 -3 5 -17 10 -31 10 -13 0
-24 3 -24 8 0 4 -14 8 -32 9 -17 1 -36 7 -41 12 -5 5 -16 7 -23 4 -8 -3 -14
-1 -14 5 0 6 -9 8 -20 5 -11 -3 -20 -1 -20 4 0 9 -13 13 -52 14 -10 0 -20 4
-23 9 -3 4 -14 6 -25 3 -11 -3 -20 -1 -20 5 0 6 -11 9 -24 6 -14 -2 -27 0 -30
5 -3 4 -19 7 -36 5 -16 -2 -30 0 -30 4 0 4 -18 7 -40 5 -22 -1 -40 2 -40 6 0
4 -16 6 -35 5 -19 -2 -35 0 -35 4 0 8 -39 10 -368 14 -140 2 -256 0 -258 -4z"/>
<path d="M6056 5112 c-5 -4 -52 -13 -141 -27 -11 -2 -22 -4 -25 -6 -3 -1 -9
-3 -15 -4 -5 -2 -13 -4 -17 -5 -5 -1 -11 -3 -15 -4 -36 -9 -133 -51 -133 -58
0 -5 -5 -6 -10 -3 -6 3 -13 -1 -16 -9 -3 -9 -11 -16 -18 -16 -12 0 -40 -28
-43 -43 -1 -5 -12 -17 -24 -28 -12 -10 -19 -19 -14 -19 4 0 2 -6 -4 -13 -6 -8
-8 -17 -4 -20 3 -4 1 -7 -6 -7 -7 0 -10 -4 -6 -10 3 -5 0 -24 -7 -42 -8 -20
-12 -61 -10 -103 4 -107 5 -115 13 -115 4 0 6 -8 5 -17 -2 -10 0 -20 5 -23 4
-3 10 -17 13 -32 2 -14 9 -35 15 -46 6 -11 7 -22 4 -26 -3 -3 -1 -6 6 -6 7 0
9 -4 6 -10 -3 -5 -1 -10 4 -10 6 0 11 -9 11 -20 0 -11 5 -20 10 -20 6 0 10 -5
10 -11 0 -13 82 -93 101 -97 8 -2 16 -8 17 -13 2 -5 8 -7 13 -3 5 3 9 0 9 -6
0 -6 4 -9 9 -5 5 3 12 1 16 -4 3 -6 12 -8 20 -5 8 3 20 2 27 -2 13 -8 43 -14
98 -17 19 -1 40 -5 45 -8 13 -7 95 -3 118 6 9 4 18 3 18 -1 1 -5 3 -20 6 -34
2 -14 5 -43 7 -65 2 -22 5 -40 6 -40 1 0 4 -13 5 -30 5 -54 16 -99 27 -112 6
-7 8 -13 5 -13 -3 0 0 -12 8 -27 8 -15 12 -30 9 -35 -3 -4 4 -18 15 -30 12
-12 21 -25 21 -30 0 -4 8 -17 18 -28 9 -11 17 -24 17 -29 0 -8 110 -118 153
-153 11 -9 23 -14 26 -11 3 3 12 0 21 -7 8 -7 15 -9 15 -5 0 4 7 2 15 -5 8 -7
15 -9 15 -5 0 4 6 2 13 -4 8 -6 17 -8 20 -4 4 3 7 2 7 -3 0 -14 78 -7 114 10
26 12 60 26 96 39 16 6 140 139 140 151 0 8 7 16 15 20 8 3 15 9 14 13 -3 14
25 73 34 73 4 0 5 6 1 13 -4 6 -3 8 1 4 9 -7 15 -28 17 -54 1 -7 5 -13 11 -13
5 0 7 -6 4 -12 -2 -7 2 -30 9 -50 7 -21 11 -38 7 -38 -3 0 0 -6 6 -13 6 -8 8
-17 4 -20 -3 -4 0 -7 7 -7 7 0 10 -3 7 -6 -3 -4 -1 -16 5 -28 7 -11 11 -24 10
-28 -1 -5 2 -8 8 -8 5 0 10 -7 10 -15 0 -8 4 -15 8 -15 5 0 19 -18 31 -41 34
-60 160 -178 183 -171 4 1 8 -3 8 -9 0 -5 4 -8 9 -5 5 3 14 -1 21 -9 7 -8 16
-12 21 -9 5 3 14 2 21 -2 30 -19 138 -23 166 -7 12 7 22 11 22 8 0 -3 13 1 29
9 16 9 31 13 34 10 2 -3 9 8 15 24 8 23 6 38 -8 70 -10 22 -16 43 -12 46 3 3
0 6 -7 6 -7 0 -11 6 -8 13 2 6 -2 24 -10 40 -7 15 -11 27 -7 27 4 0 2 6 -3 13
-6 6 -14 26 -18 42 -12 44 -12 45 -15 50 -1 3 -3 8 -4 13 -1 4 -5 13 -9 20 -5
6 -5 17 -2 22 3 6 1 10 -6 10 -7 0 -9 3 -6 6 4 4 -3 20 -14 35 -11 16 -17 29
-13 29 3 0 2 6 -3 13 -6 6 -9 20 -8 30 2 9 0 17 -5 17 -8 0 -20 30 -31 80 -2
8 -6 17 -9 20 -15 15 -39 68 -33 74 3 3 2 6 -4 6 -10 0 -26 36 -24 53 1 4 -4
7 -10 7 -5 0 -7 5 -4 10 3 6 1 10 -4 10 -6 0 -11 8 -11 18 0 10 -6 24 -12 31
-7 6 -13 16 -13 21 0 10 -57 123 -66 130 -7 6 -38 55 -69 113 -12 21 -32 51
-45 65 -25 28 -38 44 -95 112 -45 54 -177 190 -184 190 -3 0 -23 17 -44 38
-41 41 -90 82 -97 82 -2 0 -24 14 -48 30 -25 17 -50 30 -56 30 -6 0 -11 5 -11
12 0 6 -3 9 -6 6 -3 -4 -34 9 -70 28 -35 19 -64 32 -64 29 0 -3 -17 2 -37 11
-21 9 -49 18 -63 19 -14 2 -25 4 -25 5 0 1 -9 4 -20 6 -50 11 -83 16 -122 17
-24 0 -43 3 -43 6 0 6 -119 9 -124 3z"/>
</g>
</svg>
